<svg width="48" height="48" viewBox="0 0 48 48" fill="none" xmlns="http://www.w3.org/2000/svg">
<g clip-path="url(#clip0_230_126)">
<path d="M38.304 0H9.696C4.338 0 0 4.338 0 9.696V38.31C0 43.662 4.338 48 9.696 48H38.31C43.662 48 48.006 43.662 48.006 38.304V9.696C48 4.338 43.662 0 38.304 0Z" fill="url(#paint0_linear_230_126)"/>
<path d="M23.796 11.0282L24.768 9.34818C25.368 8.29818 26.706 7.94418 27.756 8.54418C28.806 9.14418 29.16 10.4822 28.56 11.5322L19.194 27.7442H25.968C28.164 27.7442 29.394 30.3242 28.44 32.1122H8.58C7.368 32.1122 6.396 31.1402 6.396 29.9282C6.396 28.7162 7.368 27.7442 8.58 27.7442H14.148L21.276 15.3902L19.05 11.5262C18.45 10.4762 18.804 9.15018 19.854 8.53818C20.904 7.93818 22.23 8.29218 22.842 9.34218L23.796 11.0282ZM15.372 34.3622L13.272 38.0042C12.672 39.0542 11.334 39.4082 10.284 38.8082C9.234 38.2082 8.88 36.8702 9.48 35.8202L11.04 33.1202C12.804 32.5742 14.238 32.9942 15.372 34.3622ZM33.456 27.7562H39.138C40.35 27.7562 41.322 28.7282 41.322 29.9402C41.322 31.1522 40.35 32.1242 39.138 32.1242H35.982L38.112 35.8202C38.712 36.8702 38.358 38.1962 37.308 38.8082C36.258 39.4082 34.932 39.0542 34.32 38.0042C30.732 31.7822 28.038 27.1262 26.25 24.0242C24.42 20.8682 25.728 17.7002 27.018 16.6262C28.452 19.0862 30.594 22.8002 33.456 27.7562Z" fill="white"/>
</g>
<defs>
<linearGradient id="paint0_linear_230_126" x1="24.003" y1="0" x2="24.003" y2="48" gradientUnits="userSpaceOnUse">
<stop stop-color="#18BFFB"/>
<stop offset="1" stop-color="#2072F3"/>
</linearGradient>
<clipPath id="clip0_230_126">
<rect width="48" height="48" fill="white"/>
</clipPath>
</defs>
</svg>
