<svg width="50" height="50" viewBox="0 0 50 50" fill="none" xmlns="http://www.w3.org/2000/svg">
<path fill-rule="evenodd" clip-rule="evenodd" d="M37.5625 1C44.5 1 49 5.5 49 12.4375V37.5625C49 44.5 44.5 49 37.5625 49H12.4375C5.5 49 1 44.5 1 37.5625V12.4375C1 5.5 5.5 1 12.4375 1H37.5625Z" fill="white"/>
<path fill-rule="evenodd" clip-rule="evenodd" d="M37.5625 1C44.5 1 49 5.5 49 12.4375V37.5625C49 44.5 44.5 49 37.5625 49H12.4375C5.5 49 1 44.5 1 37.5625V12.4375C1 5.5 5.5 1 12.4375 1H37.5625Z" fill="white" stroke="#A4A4A4" stroke-opacity="0.5" stroke-width="0.5"/>
<path fill-rule="evenodd" clip-rule="evenodd" d="M20.4102 9.87543C16.531 11.2052 13.2254 14.1135 11.3843 17.7939C10.742 19.0636 10.2796 20.4105 9.997 21.8089C9.2948 25.2749 9.78292 28.9725 11.3757 32.1296C12.4119 34.1885 13.902 36.0245 15.7003 37.4572C17.4044 38.8127 19.3826 39.825 21.4892 40.3827C24.1439 41.0947 26.9699 41.0775 29.6417 40.4684C32.0566 39.9108 34.3431 38.7526 36.1671 37.0711C38.0939 35.2953 39.4726 32.9617 40.2005 30.4481C40.9968 27.7113 41.0996 24.7859 40.6032 21.9719C35.6105 21.9719 30.6094 21.9719 25.6168 21.9719C25.6168 24.0481 25.6168 26.1242 25.6168 28.2003C28.5113 28.2003 31.4058 28.2003 34.3003 28.2003C33.9663 30.1907 32.7845 32.0095 31.1146 33.1333C30.0613 33.8454 28.8539 34.3001 27.6036 34.5231C26.3533 34.7376 25.0517 34.7633 23.8014 34.5145C22.5254 34.2572 21.318 33.7253 20.2561 32.9789C18.5605 31.7864 17.2674 30.0449 16.608 28.0802C15.9315 26.0813 15.923 23.8593 16.608 21.869C17.0876 20.462 17.8754 19.1665 18.9202 18.1027C20.2047 16.7816 21.8746 15.8379 23.6815 15.4518C25.2229 15.1258 26.85 15.1859 28.3572 15.6405C29.6417 16.0266 30.8235 16.7387 31.7912 17.6652C32.7674 16.6872 33.7436 15.7092 34.7199 14.7312C35.2337 14.2079 35.7732 13.7017 36.2699 13.1612C34.7884 11.7885 33.0414 10.6818 31.1403 9.97835C27.7149 8.70867 23.8613 8.68291 20.4102 9.87543Z" fill="white"/>
<path fill-rule="evenodd" clip-rule="evenodd" d="M20.4102 9.87495C23.8528 8.68243 27.7149 8.70819 31.1403 9.96931C33.0414 10.6728 34.7798 11.7709 36.2698 13.1522C35.7732 13.6926 35.2337 14.1988 34.7198 14.7221C33.7436 15.7002 32.7674 16.6782 31.7911 17.6562C30.8234 16.7296 29.6417 16.0262 28.3572 15.6315C26.85 15.1768 25.2229 15.1082 23.6815 15.4428C21.8832 15.8288 20.2133 16.7725 18.9202 18.0937C17.8754 19.149 17.0876 20.453 16.608 21.8599C14.8696 20.5044 13.1312 19.1575 11.3843 17.802C13.2254 14.113 16.531 11.2047 20.4102 9.87495Z" fill="#EA4335"/>
<path fill-rule="evenodd" clip-rule="evenodd" d="M10.0055 21.8006C10.2881 20.4108 10.7506 19.0553 11.3928 17.7856C13.1312 19.1411 14.8696 20.488 16.6166 21.8435C15.9315 23.8425 15.9315 26.0644 16.6166 28.0548C14.8782 29.4103 13.1398 30.7658 11.4014 32.1127C9.79144 28.9642 9.30332 25.2666 10.0055 21.8006Z" fill="#FBBC05"/>
<path fill-rule="evenodd" clip-rule="evenodd" d="M25.6169 21.9634C30.6094 21.9634 35.6105 21.9634 40.6032 21.9634C41.0996 24.7687 40.9884 27.6942 40.2005 30.4395C39.4727 32.9532 38.0939 35.2867 36.1671 37.0626C34.4801 35.75 32.7931 34.4374 31.1061 33.1248C32.776 32.0009 33.9577 30.1821 34.2917 28.1918C31.3973 28.1918 28.5028 28.1918 25.6083 28.1918C25.6169 26.1157 25.6169 24.0395 25.6169 21.9634Z" fill="#4285F4"/>
<path fill-rule="evenodd" clip-rule="evenodd" d="M11.3843 32.1209C13.1227 30.774 14.8611 29.4185 16.5994 28.063C17.2674 30.0276 18.5519 31.7692 20.2475 32.9617C21.3094 33.708 22.5254 34.2399 23.7928 34.4973C25.0431 34.7547 26.3362 34.7204 27.595 34.5059C28.8453 34.2828 30.0528 33.8281 31.106 33.1161C32.7931 34.4287 34.4801 35.7413 36.1671 37.0539C34.3431 38.7439 32.0566 39.8935 29.6417 40.4512C26.9699 41.0603 24.1439 41.0775 21.4892 40.3654C19.3826 39.8078 17.4044 38.804 15.7003 37.4399C13.9105 36.0158 12.4205 34.1799 11.3843 32.1209Z" fill="#34A853"/>
</svg>
