<svg width="48" height="48" viewBox="0 0 48 48" fill="none" xmlns="http://www.w3.org/2000/svg">
<path fill-rule="evenodd" clip-rule="evenodd" d="M36.5625 0C43.5 0 48 4.5 48 11.4375V36.5625C48 43.5 43.5 48 36.5625 48H11.4375C4.5 48 0 43.5 0 36.5625V11.4375C0 4.5 4.5 0 11.4375 0H36.5625Z" fill="black"/>
<path d="M26.4735 22.4268L36.1526 11H33.859L25.4546 20.9217L18.7421 11H11L21.1507 26.0034L11 37.9861H13.2938L22.169 27.5085L29.2579 37.9861H37L26.473 22.4268H26.4735ZM23.3319 26.1356L22.3034 24.6416L14.1202 12.7537H17.6433L24.2473 22.3476L25.2757 23.8416L33.8601 36.3122H30.337L23.3319 26.1362V26.1356Z" fill="white"/>
</svg>
